# xmcd CD database file
#
# Track frame offsets:
#	150
#	35366
#	86541
#	173027
#	233097
#	260866
#
# Disc length: 4031 seconds
#
# Revision: 0
# Processed by: cddbd v1.5.1PL2 Copyright (c) Steve Scherf et al.
# Submitted via: CDex 1.51
#
DISCID=450fbd06
DTITLE=Charlie Hunter - Yoshi's, Oakland, CA December 2000
DYEAR=2000
DGENRE=Jazz
TTITLE0=Charlie Hunter - Winky
TTITLE1=Charlie Hunter - Do That Then
TTITLE2=Charlie Hunter - Chope's Bad-Ass Groove
TTITLE3=Charlie Hunter - Percussion Shuffle
TTITLE4=Charlie Hunter - Philadelphia Hucklebuck
TTITLE5=Charlie Hunter - Mitch Better Have My Bunny
EXTD=YEAR: 2000
EXTT0=
EXTT1=
EXTT2=
EXTT3=
EXTT4=
EXTT5=
PLAYORDER=
